<svg width="24" height="14" viewBox="0 0 24 14" fill="none" xmlns="http://www.w3.org/2000/svg">
<g filter="url(#filter0_d_1170_746)">
<path d="M9.66797 7.77051C9.66797 9.49902 9.27832 10.832 8.49902 11.7695C7.72559 12.707 6.63281 13.1758 5.2207 13.1758C3.79688 13.1758 2.69531 12.7041 1.91602 11.7607C1.13672 10.8174 0.74707 9.4873 0.74707 7.77051V5.43262C0.74707 3.7041 1.13379 2.37109 1.90723 1.43359C2.68652 0.496094 3.78516 0.0273438 5.20312 0.0273438C6.62109 0.0273438 7.71973 0.499023 8.49902 1.44238C9.27832 2.38574 9.66797 3.71875 9.66797 5.44141V7.77051ZM6.70605 5.05469C6.70605 4.13477 6.58594 3.44922 6.3457 2.99805C6.10547 2.54102 5.72461 2.3125 5.20312 2.3125C4.69336 2.3125 4.32129 2.52344 4.08691 2.94531C3.8584 3.36719 3.73535 4.00586 3.71777 4.86133V8.13086C3.71777 9.08594 3.83789 9.78613 4.07812 10.2314C4.31836 10.6709 4.69922 10.8906 5.2207 10.8906C5.72461 10.8906 6.09668 10.6768 6.33691 10.249C6.57715 9.81543 6.7002 9.13867 6.70605 8.21875V5.05469ZM11.2148 2.66406C11.2148 1.87305 11.4727 1.23437 11.9883 0.748047C12.5039 0.261719 13.1953 0.0185547 14.0625 0.0185547C14.9414 0.0185547 15.6357 0.261719 16.1455 0.748047C16.6553 1.22852 16.9102 1.88184 16.9102 2.70801V3.34082C16.9102 4.13184 16.6553 4.76758 16.1455 5.24805C15.6357 5.72852 14.9473 5.96875 14.0801 5.96875C13.2188 5.96875 12.5244 5.73145 11.9971 5.25684C11.4756 4.77637 11.2148 4.12012 11.2148 3.28809V2.66406ZM13.1221 3.34082C13.1221 3.64551 13.207 3.89453 13.377 4.08789C13.5469 4.27539 13.7812 4.36914 14.0801 4.36914C14.6953 4.36914 15.0029 3.97656 15.0029 3.19141V2.66406C15.0029 2.35937 14.9209 2.11035 14.7568 1.91699C14.5928 1.71777 14.3613 1.61816 14.0625 1.61816C13.7754 1.61816 13.5469 1.71484 13.377 1.9082C13.207 2.0957 13.1221 2.35352 13.1221 2.68164V3.34082ZM17.2969 9.8623C17.2969 9.06543 17.5547 8.42676 18.0703 7.94629C18.5918 7.46582 19.2832 7.22559 20.1445 7.22559C21.0176 7.22559 21.7119 7.46289 22.2275 7.9375C22.7432 8.41211 23.001 9.07422 23.001 9.92383V10.5391C23.001 11.3359 22.7461 11.9746 22.2363 12.4551C21.7266 12.9355 21.0352 13.1758 20.1621 13.1758C19.3008 13.1758 18.6064 12.9385 18.0791 12.4639C17.5576 11.9834 17.2969 11.3271 17.2969 10.4951V9.8623ZM19.1953 10.5391C19.1953 10.8145 19.2891 11.0576 19.4766 11.2686C19.6641 11.4736 19.8926 11.5762 20.1621 11.5762C20.7305 11.5762 21.0381 11.3066 21.085 10.7676L21.0938 9.8623C21.0938 9.55176 21.0088 9.30273 20.8389 9.11523C20.6689 8.92188 20.4375 8.8252 20.1445 8.8252C19.8633 8.8252 19.6377 8.91602 19.4678 9.09766C19.2979 9.27344 19.207 9.51367 19.1953 9.81836V10.5391ZM14.6426 12.042L13.2627 11.3477L19.5117 1.3457L20.8916 2.04004L14.6426 12.042Z" fill="#FF0000"/>
</g>
<defs>
<filter id="filter0_d_1170_746" x="0.74707" y="0.0185547" width="22.7539" height="13.1572" filterUnits="userSpaceOnUse" color-interpolation-filters="sRGB">
<feFlood flood-opacity="0" result="BackgroundImageFix"/>
<feColorMatrix in="SourceAlpha" type="matrix" values="0 0 0 0 0 0 0 0 0 0 0 0 0 0 0 0 0 0 127 0" result="hardAlpha"/>
<feOffset dx="0.5"/>
<feComposite in2="hardAlpha" operator="out"/>
<feColorMatrix type="matrix" values="0 0 0 0 0.279167 0 0 0 0 0 0 0 0 0 0 0 0 0 1 0"/>
<feBlend mode="normal" in2="BackgroundImageFix" result="effect1_dropShadow_1170_746"/>
<feBlend mode="normal" in="SourceGraphic" in2="effect1_dropShadow_1170_746" result="shape"/>
</filter>
</defs>
</svg>
