<svg width="18" height="13" viewBox="0 0 18 13" fill="none" xmlns="http://www.w3.org/2000/svg">
<path fill-rule="evenodd" clip-rule="evenodd" d="M10.2792 2.3413C14.6435 2.95629 17.9983 6.66294 17.9983 11.1467C17.9983 11.7834 17.9307 12.4034 17.8022 13.0017H15.3605C15.5363 12.4134 15.631 11.7901 15.631 11.1467C15.631 7.95976 13.3296 5.30595 10.2809 4.71603V10.901L7.85439 12.1059V4.69096C4.73969 5.22741 2.37069 7.91297 2.37069 11.1467C2.37069 11.7917 2.46538 12.4134 2.64124 13.0017H0.196148C0.0676374 12.4017 0 11.7817 0 11.145C0 6.61615 3.42414 2.87942 7.8527 2.32125V1.20491L10.2792 0V2.3413Z" fill="#2D2D2D"/>
</svg>
