<svg width="12" height="18" viewBox="0 0 12 18" fill="none" xmlns="http://www.w3.org/2000/svg">
<path d="M9.62582 3.21755H11.3871V0.00195715H8.18634C7.91933 -0.00915282 4.66448 -0.0713685 3.82086 3.14571C3.80864 3.17941 3.53904 3.94451 3.53904 5.73174L0.612305 5.74063V9.11324L3.54274 9.10472V18.0005H8.01895V9.1125H10.9816V5.731H8.01895V4.66703C8.01895 4.00562 8.29781 3.21755 9.62582 3.21755ZM10.2409 6.47129V8.37147H7.27829V17.2594H4.28341V8.36184L1.35297 8.37035V6.47907L4.29118 6.47055L4.28341 6.09392C4.24489 4.20078 4.51487 3.40457 4.52709 3.36643C5.25516 0.5956 8.03524 0.734845 8.15449 0.742251L10.6465 0.742992V2.47726H9.62582C7.89526 2.47726 7.27866 3.60825 7.27866 4.66666V6.47129H10.2409Z" fill="#2D2D2D"/>
</svg>
