<svg width="12" height="14" viewBox="0 0 12 14" fill="none" xmlns="http://www.w3.org/2000/svg">
<path d="M2.2831 0.567105C2.11659 0.463037 1.92526 0.405435 1.72897 0.400281C1.53268 0.395128 1.33859 0.442609 1.16685 0.537796C0.99511 0.632983 0.85198 0.772405 0.752318 0.941589C0.652656 1.11077 0.600097 1.30355 0.600098 1.4999V12.8299C0.600067 13.0287 0.653918 13.2238 0.755924 13.3945C0.857931 13.5651 1.00428 13.7049 1.17941 13.799C1.35454 13.8931 1.55189 13.938 1.7505 13.9289C1.9491 13.9198 2.14152 13.857 2.3073 13.7473L11.1073 7.9195C11.2605 7.81796 11.3858 7.67964 11.4718 7.51718C11.5578 7.35472 11.6017 7.17331 11.5995 6.98951C11.5973 6.80572 11.5491 6.6254 11.4593 6.46503C11.3695 6.30467 11.2409 6.16937 11.0853 6.0715L2.2853 0.567105H2.2831Z" fill="#A4A4A4"/>
</svg>
